<svg xmlns="http://www.w3.org/2000/svg" viewBox="0 0 64 64" role="img" aria-labelledby="title desc">
  <title id="title">lancer.log site icon</title>
  <desc id="desc">A compact personal mark combining code brackets, agent nodes, racing motion, and a basketball arc.</desc>
  <defs>
    <linearGradient id="bg" x1="9" y1="7" x2="57" y2="59" gradientUnits="userSpaceOnUse">
      <stop offset="0" stop-color="#101820"/>
      <stop offset=".55" stop-color="#172a35"/>
      <stop offset="1" stop-color="#0b1117"/>
    </linearGradient>
    <linearGradient id="rush" x1="13" y1="45" x2="55" y2="16" gradientUnits="userSpaceOnUse">
      <stop offset="0" stop-color="#ff5a1f"/>
      <stop offset=".48" stop-color="#f5b642"/>
      <stop offset="1" stop-color="#20c7d7"/>
    </linearGradient>
    <filter id="soft" x="-20%" y="-20%" width="140%" height="140%">
      <feDropShadow dx="0" dy="2" stdDeviation="2" flood-color="#000" flood-opacity=".35"/>
    </filter>
  </defs>
  <rect width="64" height="64" rx="14" fill="url(#bg)"/>
  <path d="M10 43c12-2 22-7 32-16 3-3 6-5 12-6" fill="none" stroke="url(#rush)" stroke-width="5.5" stroke-linecap="round"/>
  <path d="M12 50c12-1 24-6 36-17" fill="none" stroke="#20c7d7" stroke-width="2.5" stroke-linecap="round" opacity=".7"/>
  <path d="M24 19 14 31l10 12" fill="none" stroke="#eef6ff" stroke-width="5" stroke-linecap="round" stroke-linejoin="round" filter="url(#soft)"/>
  <path d="M40 19 50 31 40 43" fill="none" stroke="#eef6ff" stroke-width="5" stroke-linecap="round" stroke-linejoin="round" filter="url(#soft)"/>
  <path d="M28 44 36 20" fill="none" stroke="#8aa4b7" stroke-width="3.5" stroke-linecap="round"/>
  <circle cx="46" cy="18" r="5.5" fill="#ffb13b" stroke="#fff3dc" stroke-width="2"/>
  <path d="M42.5 17.8h7M46 13.7v8.5M42.9 15.1c2.2 1.6 4.3 3.9 5.8 6" fill="none" stroke="#9b420f" stroke-width="1.1" stroke-linecap="round" opacity=".72"/>
  <circle cx="25" cy="30" r="3.8" fill="#20c7d7" stroke="#eef6ff" stroke-width="1.5"/>
  <circle cx="37" cy="30" r="3.8" fill="#ff5a1f" stroke="#fff1e8" stroke-width="1.5"/>
  <path d="M28.8 30h4.4" fill="none" stroke="#d8e7ef" stroke-width="2.4" stroke-linecap="round"/>
</svg>
